<svg xmlns="http://www.w3.org/2000/svg" viewBox="0 0 764 256"><defs><style>.cls-1{fill:#fff;}</style></defs><title>logo-rectangle-white</title><g id="logo-rectangle-white"><path class="cls-1" d="M315.1,123c-1.7-1.9-24.1-30-28.1-34.8s-5.9-3.9-8.3-3.5-30.9,5.1-34.2,5.7-5.4,1.8-3.4,4.7L265.8,130l-74.4,17.8L132.3,48.9c-2.4-3.5-2.9-4.7-8.2-4.4s-46.4,3.6-49.3,3.9-6.2,1.5-3.2,8.4S121.1,164.1,122.4,167s4.7,7.7,12.6,5.8l51.5-13.3c8.1,14.7,24.7,44.5,27.7,48.7,4.1,5.7,6.9,4.8,13.2,2.9s76.6-27.3,79.8-28.6,5.2-2.3,3-5.5-20.5-27.7-30.4-41l33.5-8.9C316.3,126.3,316.7,124.8,315.1,123ZM179.9,150.6l-44.7,10.7c-2.3.5-2.3.2-2.5-.5S83.2,58.4,82.5,57.2s-.7-2.3,0-2.3,39.3-3.5,40.7-3.5,1.2.2,1.7,1,54.6,94.2,55.5,95.9S180.8,150.4,179.9,150.6Zm117.4,22c.7,1.1,1.3,1.7-.7,2.5s-70.5,23.8-71.8,24.4-2.4.8-4.1-1.7-24-41-24-41l72.5-18.9c1.8-.5,2.4-.9,3.5.9S296.7,171.6,297.3,172.6Zm4.7-51.5-28.3,7L252,98.2c-.7-.8-1.2-1.7.4-1.9l27.3-4.9c1.2-.3,2.1-.6,3.5,1.3s20.2,25.7,20.9,26.6S303.6,120.8,302,121.1Z"/><path class="cls-1" d="M366.4,69.3a17.8,17.8,0,0,0-3.4.5,2.3,2.3,0,0,0-1.4,1.5,10.4,10.4,0,0,0-.4,3.6v33a10.5,10.5,0,0,0,.3,3,2.4,2.4,0,0,0,1.1,1.3,8.7,8.7,0,0,0,2.7.3h3.1c3,0,5.5-1.3,7.7-4A21.9,21.9,0,0,0,380.3,98h1.4c-.1,1.5-.2,3.4-.2,5.7A94.2,94.2,0,0,0,382,114c-2.9-.2-7.9-.2-14.9-.2-9.4,0-16.5,0-21.1.2v-1.3a15.3,15.3,0,0,0,3.1-.5,2.6,2.6,0,0,0,1.4-1.5,16,16,0,0,0,.3-3.6V74.9a14.8,14.8,0,0,0-.3-3.6,2.6,2.6,0,0,0-1.4-1.5,15.3,15.3,0,0,0-3.1-.5V68l10.2.2,10.2-.2Z"/><path class="cls-1" d="M388.7,112.3a8.6,8.6,0,0,1-.6-10.5,11.7,11.7,0,0,1,3.7-3,60,60,0,0,1,5.6-2.2,25,25,0,0,0,5.2-2.2,3.2,3.2,0,0,0,1.7-2.8v-5a6.3,6.3,0,0,0-1.3-4.3,4.7,4.7,0,0,0-3.9-1.5,6.9,6.9,0,0,0-4.8,1.5,6.3,6.3,0,0,1,2.9,2,5.4,5.4,0,0,1,1,3,4.6,4.6,0,0,1-1.5,3.6,5.7,5.7,0,0,1-3.7,1.3,4.4,4.4,0,0,1-3.5-1.5,5.1,5.1,0,0,1-1.2-3.5,5,5,0,0,1,.9-3.1,8,8,0,0,1,2.7-2.4,14.3,14.3,0,0,1,4.3-1.6,24.7,24.7,0,0,1,5.6-.6,22,22,0,0,1,5.5.6,9.3,9.3,0,0,1,3.9,2.2,7,7,0,0,1,1.9,3.6,20.9,20.9,0,0,1,.5,5.6v17.7a6.1,6.1,0,0,0,.3,2.2,1.2,1.2,0,0,0,1.2.6,3.7,3.7,0,0,0,2.3-1.1l.6,1.1a10.7,10.7,0,0,1-7.1,2.4c-2.4,0-4.1-.5-5-1.4a5,5,0,0,1-1.5-3.8,10.5,10.5,0,0,1-9.5,5.2C392.1,114.4,390,113.7,388.7,112.3Zm15.6-4.7V94.3a9.8,9.8,0,0,1-3.3,2.9,14.5,14.5,0,0,0-3.9,3.2,7.7,7.7,0,0,0-1.3,4.7,5.9,5.9,0,0,0,1.1,3.9,4,4,0,0,0,3,1.3C401.5,110.3,403,109.4,404.3,107.6Z"/><path class="cls-1" d="M449.3,81.2a6.4,6.4,0,0,1,1.5,4.3,5.6,5.6,0,0,1-1.4,3.9,5,5,0,0,1-3.7,1.5,5.4,5.4,0,0,1-3.5-1.1,3.8,3.8,0,0,1-1.3-3,5.8,5.8,0,0,1,2.9-5.1H443l-1.1.2a6,6,0,0,0-4.2,3,9.8,9.8,0,0,0-1.7,5.3v17.2c0,2,.5,3.4,1.5,4.1a7.2,7.2,0,0,0,4.6,1.2V114h-1.5l-8.8-.2-8,.2h-1.3v-1.4c1.6,0,2.7-.3,3.3-1a5.7,5.7,0,0,0,.9-3.7V87.5a8.3,8.3,0,0,0-.9-4.4c-.6-.9-1.7-1.3-3.3-1.3V80.4l4,.2a40.7,40.7,0,0,0,9.5-.9v6a11.3,11.3,0,0,1,3.6-4.5,9,9,0,0,1,5.3-1.7A5.7,5.7,0,0,1,449.3,81.2Z"/><path class="cls-1" d="M456.5,112.3a8.8,8.8,0,0,1-.5-10.5,9.8,9.8,0,0,1,3.7-3,56.7,56.7,0,0,1,5.5-2.2,26.4,26.4,0,0,0,5.3-2.2,3.1,3.1,0,0,0,1.6-2.8v-5a6.9,6.9,0,0,0-1.2-4.3,5.1,5.1,0,0,0-4-1.5,6.8,6.8,0,0,0-4.7,1.5,6.5,6.5,0,0,1,2.8,2,4.7,4.7,0,0,1,1,3,4.6,4.6,0,0,1-1.5,3.6,5.7,5.7,0,0,1-3.6,1.3,4.3,4.3,0,0,1-3.5-1.5,5.1,5.1,0,0,1-1.2-3.5,4.9,4.9,0,0,1,.8-3.1,8,8,0,0,1,2.7-2.4,15.4,15.4,0,0,1,4.3-1.6,25.6,25.6,0,0,1,5.7-.6,22.6,22.6,0,0,1,5.5.6,10.7,10.7,0,0,1,3.9,2.2,7.8,7.8,0,0,1,1.9,3.6,26.1,26.1,0,0,1,.5,5.6v17.7a6.1,6.1,0,0,0,.3,2.2,1.1,1.1,0,0,0,1.1.6,3.5,3.5,0,0,0,2.3-1.1l.7,1.1a11,11,0,0,1-7.2,2.4c-2.3,0-4-.5-5-1.4a5.4,5.4,0,0,1-1.4-3.8,10.6,10.6,0,0,1-9.6,5.2C459.9,114.4,457.9,113.7,456.5,112.3Zm15.6-4.7V94.3a9.8,9.8,0,0,1-3.3,2.9,12.6,12.6,0,0,0-3.8,3.2,7.1,7.1,0,0,0-1.3,4.7,5.9,5.9,0,0,0,1.1,3.9,3.8,3.8,0,0,0,2.9,1.3A5.3,5.3,0,0,0,472.1,107.6Z"/><path class="cls-1" d="M520.4,80.4v1.3a4.9,4.9,0,0,0-2.4,1.7,11.6,11.6,0,0,0-2,3.9l-9.5,26.8h-4.2L490.7,85.4a6.3,6.3,0,0,0-1.9-2.9,2.8,2.8,0,0,0-1.9-.7V80.4c3.1.2,6.1.3,9.2.3l8.5-.3v1.4a12.2,12.2,0,0,0-3.2.3,1.4,1.4,0,0,0-.9,1.5,7.5,7.5,0,0,0,.3,1.7l7.4,19.6,4.7-12.8a16.3,16.3,0,0,0,1-5.3c0-3.1-1.5-4.8-4.7-5.1V80.4l6.2.2Z"/><path class="cls-1" d="M549.7,104.4l1.2.3a14.7,14.7,0,0,1-4.7,7.2,11.9,11.9,0,0,1-8.3,3,14.2,14.2,0,0,1-10.9-4.4c-2.7-2.9-4.1-7.2-4.1-13s1.4-10.3,4.4-13.4,6.7-4.6,11.5-4.6c8.1,0,12.2,4.8,12.2,14.4H532.8a25.5,25.5,0,0,0-.1,3.1,18.5,18.5,0,0,0,1.2,7.1,9.3,9.3,0,0,0,3.1,4.2,7.9,7.9,0,0,0,4.1,1.3C544.7,109.6,547.6,107.8,549.7,104.4ZM534.6,83.7c-1.1,2-1.7,4.9-2,9h10.2a23.6,23.6,0,0,0-1-8.5c-.7-2.2-1.9-3.3-3.4-3.3S535.6,81.8,534.6,83.7Z"/><path class="cls-1" d="M570.6,107.9a5.7,5.7,0,0,0,.9,3.7c.6.7,1.7,1,3.3,1V114l-8.7-.3-9,.3v-1.4a4.1,4.1,0,0,0,3.2-1c.7-.7,1-1.9,1-3.7v-37c0-2-.3-3.4-1-4.3a3.6,3.6,0,0,0-3.2-1.4V63.8a27.5,27.5,0,0,0,4,.2,41.9,41.9,0,0,0,9.5-.9Z"/><path class="cls-1" d="M377,152a22.2,22.2,0,0,1,5.3,3.1,2.2,2.2,0,0,0,1.3.6c.8,0,1.4-1.3,1.6-3.9h1.5c-.1,2.9-.2,8.2-.2,15.7H385a28.8,28.8,0,0,0-1.6-7.3,10.1,10.1,0,0,0-3.3-4.5,11,11,0,0,0-3.7-2.3,11.9,11.9,0,0,0-4.5-.8c-4.4,0-7.6,2.1-9.8,6.4s-3.1,9.5-3.1,15.9,1.1,11.6,3.3,15.8,5.5,6.4,9.8,6.4a13.2,13.2,0,0,0,4.4-.8,8.5,8.5,0,0,0,3.7-2.4,9.2,9.2,0,0,0,3.3-4.5,35.6,35.6,0,0,0,1.5-8h1.5c0,7.8.1,13.3.2,16.4h-1.5a13,13,0,0,0-.5-3,1.1,1.1,0,0,0-1-.9,3.4,3.4,0,0,0-1.4.5,24.9,24.9,0,0,1-5.6,3.2,17.1,17.1,0,0,1-6.4,1.1,25.3,25.3,0,0,1-12-2.8,19.5,19.5,0,0,1-8-8.1,25,25,0,0,1-2.9-12.6,27.3,27.3,0,0,1,2.9-12.7,21.9,21.9,0,0,1,8.2-8.6,23.1,23.1,0,0,1,11.9-3A16.3,16.3,0,0,1,377,152Z"/><path class="cls-1" d="M419.1,167.5q4.2,4.4,4.2,13.5c0,6.2-1.4,10.6-4.2,13.4s-6.7,4.3-11.7,4.3-8.8-1.4-11.7-4.3-4.2-7.2-4.2-13.4,1.4-10.6,4.2-13.5,6.8-4.2,11.7-4.2S416.3,164.7,419.1,167.5Zm-16.2,1.1c-1.1,2.7-1.6,6.9-1.6,12.4s.5,9.7,1.6,12.3,2.6,4.1,4.5,4.1,3.4-1.4,4.5-4,1.6-6.8,1.6-12.4-.6-9.7-1.7-12.4-2.6-4-4.4-4S404,165.9,402.9,168.6Z"/><path class="cls-1" d="M458.6,165.8a6.5,6.5,0,0,1,1.6,3.2,24.7,24.7,0,0,1,.4,5.3v17.4c0,1.8.3,3,1,3.7a4.1,4.1,0,0,0,3.2,1v1.4l-8.6-.3-8.4.3v-1.4a3.1,3.1,0,0,0,2.7-1,6.5,6.5,0,0,0,.8-3.7V171.5a7.2,7.2,0,0,0-.9-4,3.4,3.4,0,0,0-3.1-1.4,6.1,6.1,0,0,0-4.6,2.2,8.3,8.3,0,0,0-1.9,5.4v18a6.5,6.5,0,0,0,.8,3.7,3.1,3.1,0,0,0,2.7,1v1.4l-8-.3-9,.3v-1.4c1.6,0,2.7-.3,3.3-1a5.7,5.7,0,0,0,.9-3.7V171.3a8.3,8.3,0,0,0-.9-4.4,3.7,3.7,0,0,0-3.3-1.4v-1.3l4,.2a40.7,40.7,0,0,0,9.5-.9v5.8c2-4,5.5-6,10.7-6C454.8,163.3,457.1,164.1,458.6,165.8Z"/><path class="cls-1" d="M493.9,149.1a5.8,5.8,0,0,1,1.6,2.1,6.4,6.4,0,0,1,.6,2.8,4.4,4.4,0,0,1-1.3,3.1,4.5,4.5,0,0,1-3.3,1.4,4.8,4.8,0,0,1-3.6-1.3,4.2,4.2,0,0,1-1.4-3.3,4.9,4.9,0,0,1,1-3,4.8,4.8,0,0,1,2.9-1.8,1.9,1.9,0,0,0-.8-.7,4.1,4.1,0,0,0-1.6-.3,3.9,3.9,0,0,0-3.5,1.7,5.5,5.5,0,0,0-.9,2.9,37.8,37.8,0,0,0-.3,5.6v6h6.9v1.2h-6.9v25.6c0,2,.5,3.3,1.5,4.1a7.4,7.4,0,0,0,4.6,1.2v1.4h-1.8l-9.4-.2-8.4.3v-1.4a4.1,4.1,0,0,0,3.2-1,5.7,5.7,0,0,0,.9-3.7V165.5h-4.4v-1.2h4.4a29.1,29.1,0,0,1,1-8.8,12.4,12.4,0,0,1,3.1-5.3,12.2,12.2,0,0,1,3.9-2.3,14.3,14.3,0,0,1,5-.9A11.8,11.8,0,0,1,493.9,149.1Z"/><path class="cls-1" d="M521.6,188.1l1.2.4a15.6,15.6,0,0,1-4.7,7.2,11.9,11.9,0,0,1-8.3,3c-4.6,0-8.3-1.5-11-4.4s-4-7.3-4-13,1.4-10.3,4.3-13.4,6.8-4.6,11.6-4.6c8.1,0,12.2,4.8,12.2,14.4H504.7a23.7,23.7,0,0,0-.1,3,18.7,18.7,0,0,0,1.2,7.2,8.4,8.4,0,0,0,3.1,4.1,7.1,7.1,0,0,0,4.1,1.3C516.6,193.3,519.4,191.6,521.6,188.1Zm-15.2-20.6c-1,2-1.6,4.9-1.9,9h10.2a23.3,23.3,0,0,0-1-8.5c-.7-2.2-1.9-3.4-3.4-3.4S507.5,165.6,506.4,167.5Z"/><path class="cls-1" d="M553.4,165a6.4,6.4,0,0,1,1.5,4.3,5.6,5.6,0,0,1-1.4,3.9,4.7,4.7,0,0,1-3.7,1.5,5.6,5.6,0,0,1-3.5-1.1,4.2,4.2,0,0,1-1.3-3.1,5.9,5.9,0,0,1,2.9-5h-1.8a6.2,6.2,0,0,0-4.2,3,9.3,9.3,0,0,0-1.7,5.4v17.2c0,2,.5,3.3,1.4,4.1a7.6,7.6,0,0,0,4.7,1.2v1.4h-1.5l-8.9-.2-7.9.2h-1.3v-1.4a4.1,4.1,0,0,0,3.2-1,5.7,5.7,0,0,0,.9-3.7V171.3a8.3,8.3,0,0,0-.9-4.4,3.6,3.6,0,0,0-3.2-1.4v-1.3l4,.2a41.9,41.9,0,0,0,9.5-.9v6a10.6,10.6,0,0,1,3.5-4.5,9.3,9.3,0,0,1,5.3-1.7A5.7,5.7,0,0,1,553.4,165Z"/><path class="cls-1" d="M584.6,188.1l1.2.4a16.2,16.2,0,0,1-4.6,7.2,12.2,12.2,0,0,1-8.4,3,14.2,14.2,0,0,1-10.9-4.4c-2.7-2.9-4.1-7.3-4.1-13s1.5-10.3,4.4-13.4,6.7-4.6,11.5-4.6c8.2,0,12.2,4.8,12.2,14.4H567.7c0,.6-.1,1.7-.1,3a18.7,18.7,0,0,0,1.2,7.2A8.6,8.6,0,0,0,572,192a6.7,6.7,0,0,0,4.1,1.3C579.6,193.3,582.5,191.6,584.6,188.1Zm-15.1-20.6a22.9,22.9,0,0,0-1.9,9h10.2a25.7,25.7,0,0,0-1-8.5c-.8-2.2-1.9-3.4-3.5-3.4S570.5,165.6,569.5,167.5Z"/><path class="cls-1" d="M621,165.8a7.4,7.4,0,0,1,1.6,3.2,24.7,24.7,0,0,1,.4,5.3v17.4c0,1.8.3,3,1,3.7a4.1,4.1,0,0,0,3.2,1v1.4l-8.6-.3-8.4.3v-1.4a3.1,3.1,0,0,0,2.7-1,6.5,6.5,0,0,0,.8-3.7V171.5a7.2,7.2,0,0,0-.9-4,3.5,3.5,0,0,0-3.2-1.4,6.1,6.1,0,0,0-4.5,2.2,7.8,7.8,0,0,0-1.9,5.4v18a6.5,6.5,0,0,0,.8,3.7,3.1,3.1,0,0,0,2.7,1v1.4l-8-.3-9,.3v-1.4c1.6,0,2.7-.3,3.3-1a5.7,5.7,0,0,0,.9-3.7V171.3a8.3,8.3,0,0,0-.9-4.4,3.7,3.7,0,0,0-3.3-1.4v-1.3l4,.2a40.7,40.7,0,0,0,9.5-.9v5.8c2-4,5.5-6,10.7-6C617.2,163.3,619.5,164.1,621,165.8Z"/><path class="cls-1" d="M651,163.8a11.8,11.8,0,0,1,3.6,1.4,7.5,7.5,0,0,1,2.6,2.7,6.7,6.7,0,0,1,.9,3.4,4.8,4.8,0,0,1-5.1,5.2,4.8,4.8,0,0,1-3.6-1.3,4.5,4.5,0,0,1-1.4-3.5,4.8,4.8,0,0,1,1.3-3.4,6,6,0,0,1,3-1.9,2.7,2.7,0,0,0-1.6-1.1,5.9,5.9,0,0,0-2.3-.5c-2.6,0-4.6,1.5-6.1,4.3s-2.1,6.5-2.1,11.1.8,8,2.4,10a7.6,7.6,0,0,0,6.2,3.1,8.8,8.8,0,0,0,4.4-1.2,10.7,10.7,0,0,0,4.1-4.1l1.1.4a16.9,16.9,0,0,1-4.5,7.2,11.6,11.6,0,0,1-8.4,3.1,14.2,14.2,0,0,1-10.9-4.5c-2.8-2.9-4.2-7.3-4.2-13.1a22.1,22.1,0,0,1,2-9.7,14.7,14.7,0,0,1,5.7-6.1,17.7,17.7,0,0,1,8.4-2A16.4,16.4,0,0,1,651,163.8Z"/><path class="cls-1" d="M690.7,188.1l1.2.4a16.2,16.2,0,0,1-4.6,7.2,12.2,12.2,0,0,1-8.4,3,14.2,14.2,0,0,1-10.9-4.4c-2.7-2.9-4.1-7.3-4.1-13s1.5-10.3,4.4-13.4,6.7-4.6,11.5-4.6c8.2,0,12.2,4.8,12.2,14.4H673.8c0,.6-.1,1.7-.1,3a18.7,18.7,0,0,0,1.2,7.2A9.1,9.1,0,0,0,678,192a7.2,7.2,0,0,0,4.2,1.3C685.7,193.3,688.6,191.6,690.7,188.1Zm-15.1-20.6a22.9,22.9,0,0,0-1.9,9h10.2a28.7,28.7,0,0,0-1-8.5c-.8-2.2-1.9-3.4-3.5-3.4S676.6,165.6,675.6,167.5Z"/><path class="cls-1" d="M644.9,43.4a48.7,48.7,0,1,0,48.7,48.7A48.7,48.7,0,0,0,644.9,43.4Zm-6.2,25.5a13,13,0,0,0-3,.5,2.6,2.6,0,0,0-1.3,1.4,13.1,13.1,0,0,0-.3,3.3v26c0,5.7-.3,9.7-1,12.1a13,13,0,0,1-5.5,7.2q-4.1,2.7-10.8,2.7v-1.2a8.8,8.8,0,0,0,4.2-1.5,7.9,7.9,0,0,0,2.6-4.1,28.1,28.1,0,0,0,.9-7.9V74.1a12.2,12.2,0,0,0-.4-3.3,2,2,0,0,0-1.3-1.4,12.9,12.9,0,0,0-2.9-.5V67.7l9.2.2,9.6-.2Zm37.1,17.2a12.7,12.7,0,0,1-5.7,5.2,24.9,24.9,0,0,1-10.7,2h-3.3v10.6a9.6,9.6,0,0,0,.5,3.5,2.6,2.6,0,0,0,1.9,1.5,16.6,16.6,0,0,0,4.1.5v1.3l-11.1-.2h-9.6v-1.2a14.1,14.1,0,0,0,3-.5,2.1,2.1,0,0,0,1.2-1.4,9.2,9.2,0,0,0,.4-3.3V74.1a9.2,9.2,0,0,0-.4-3.3,2.1,2.1,0,0,0-1.2-1.4,14.1,14.1,0,0,0-3-.5V67.7l9.3.2h9.5c5.4,0,9.6,1.1,12.5,3.2a10.4,10.4,0,0,1,4.3,8.7A13,13,0,0,1,675.8,86.1Z"/><path class="cls-1" d="M659.9,68.9a4.8,4.8,0,0,0-2.4.5,2,2,0,0,0-1.1,1.5,12.7,12.7,0,0,0-.3,3.2v18h2.6c3.3,0,5.6-1,6.8-3.1s1.9-5,1.9-8.6-.6-6.8-1.7-8.7A6.5,6.5,0,0,0,659.9,68.9Z"/></g></svg>